<?xml version="1.0" standalone="no"?>
<!DOCTYPE svg PUBLIC "-//W3C//DTD SVG 20010904//EN"
 "http://www.w3.org/TR/2001/REC-SVG-20010904/DTD/svg10.dtd">
<svg version="1.0" xmlns="http://www.w3.org/2000/svg"
 width="551.000000pt" height="551.000000pt" viewBox="0 0 551.000000 551.000000"
 preserveAspectRatio="xMidYMid meet">
<metadata>
Created by potrace 1.14, written by Peter Selinger 2001-2017
</metadata>
<g transform="translate(0.000000,551.000000) scale(0.100000,-0.100000)"
fill="#000000" stroke="none">
<path d="M3748 5169 c-15 -4 -30 -4 -34 0 -4 3 -4 1 -1 -6 4 -6 -5 -15 -23
-22 -17 -5 -30 -14 -30 -20 0 -5 -9 -13 -20 -16 -11 -3 -20 -13 -20 -21 0 -8
-4 -14 -9 -14 -13 0 -163 -244 -166 -270 -1 -3 -12 -25 -25 -50 -53 -99 -110
-231 -110 -254 0 -9 -4 -16 -8 -16 -5 0 -19 -30 -31 -67 -13 -38 -28 -79 -33
-93 -5 -14 -8 -25 -7 -25 1 0 -4 -11 -11 -25 -8 -14 -15 -29 -16 -35 -2 -5
-17 -48 -34 -95 -17 -47 -33 -93 -35 -102 -2 -9 -9 -26 -15 -37 -6 -12 -8 -21
-4 -21 3 0 2 -6 -3 -12 -6 -7 -14 -26 -18 -43 -5 -16 -9 -32 -10 -35 -1 -3
-15 -48 -33 -101 -17 -53 -33 -108 -36 -122 -2 -14 -9 -35 -16 -46 -6 -12 -9
-21 -6 -21 2 0 -3 -21 -11 -47 -8 -27 -17 -59 -19 -73 -3 -14 -9 -41 -14 -60
-5 -19 -10 -38 -11 -42 -1 -4 -8 -33 -16 -65 -8 -32 -16 -69 -18 -83 -2 -14
-4 -25 -5 -25 -1 0 -3 -7 -5 -15 -2 -8 -8 -37 -15 -65 -6 -27 -14 -61 -16 -75
-3 -14 -14 -61 -24 -105 -11 -44 -21 -93 -24 -110 -5 -28 -8 -42 -21 -97 -3
-13 -8 -38 -11 -57 -3 -18 -8 -43 -10 -55 -3 -11 -7 -39 -10 -61 -4 -22 -20
-76 -37 -120 -17 -44 -32 -82 -32 -85 -1 -3 -8 -21 -17 -40 -8 -19 -21 -53
-29 -75 -8 -22 -16 -42 -19 -45 -3 -3 -11 -23 -19 -45 -32 -93 -56 -135 -76
-136 -11 -1 -56 -3 -100 -4 -63 -2 -352 -15 -375 -17 -24 -2 -39 4 -35 15 2 6
7 39 10 72 3 33 8 71 9 85 3 22 56 189 73 230 3 8 7 22 9 30 2 8 22 69 44 135
41 122 85 254 140 425 17 52 35 104 40 115 5 11 11 29 13 40 3 11 31 101 62
200 52 164 82 265 90 305 2 8 4 15 5 15 1 0 3 7 5 15 1 8 8 35 15 60 7 25 14
52 16 60 2 8 18 65 34 125 17 61 33 124 36 140 3 17 11 51 19 78 8 26 11 47 8
47 -3 0 0 6 6 13 6 8 8 17 5 20 -3 3 -2 12 2 19 4 7 9 19 10 28 7 45 16 87 21
100 3 8 7 22 8 30 5 30 17 105 18 110 5 20 -17 117 -31 139 -38 58 -93 93
-151 96 -15 1 -32 5 -39 9 -7 4 -12 3 -12 -2 0 -5 -18 -12 -40 -16 -22 -3 -40
-11 -40 -16 0 -6 -5 -10 -12 -10 -25 0 -122 -117 -178 -215 -34 -59 -109 -214
-116 -240 -2 -5 -19 -50 -38 -100 -32 -84 -104 -309 -109 -344 -1 -9 -6 -21
-9 -27 -4 -6 -10 -25 -13 -42 -3 -17 -12 -58 -21 -91 -8 -34 -17 -69 -19 -78
-2 -10 -12 -56 -23 -103 -11 -47 -23 -98 -26 -115 -2 -16 -7 -41 -10 -55 -10
-44 -16 -74 -20 -95 -3 -11 -16 -74 -31 -140 -15 -66 -28 -136 -30 -155 -2
-19 -4 -36 -5 -37 -3 -4 -5 -11 -14 -63 -5 -25 -10 -54 -13 -65 -2 -11 -6 -36
-8 -55 -2 -19 -4 -35 -5 -35 -1 0 -3 -11 -5 -25 -1 -14 -5 -40 -9 -57 -14 -77
-23 -134 -32 -208 -9 -81 -16 -114 -34 -160 -6 -16 -11 -31 -11 -33 1 -1 -5
-17 -13 -36 -8 -19 -12 -37 -8 -40 3 -3 0 -6 -6 -6 -7 0 -11 -3 -10 -7 1 -5
-7 -36 -17 -71 -12 -43 -22 -61 -31 -58 -7 3 -15 2 -18 -2 -2 -4 -19 -9 -38
-10 -18 -1 -69 -9 -113 -18 -72 -14 -103 -19 -170 -29 -11 -2 -20 -4 -20 -5 0
-1 -11 -3 -25 -6 -41 -7 -178 -44 -212 -58 -18 -7 -42 -17 -53 -21 -11 -5 -24
-9 -29 -9 -5 -1 -18 -13 -29 -28 -19 -26 -20 -28 -3 -47 22 -24 104 -40 242
-47 60 -2 126 -6 147 -7 21 -1 43 1 49 4 6 4 24 3 39 -1 17 -5 29 -5 29 0 0 6
10 6 25 0 15 -6 26 -6 30 0 4 7 13 7 24 0 10 -5 21 -6 25 -3 11 11 6 -14 -10
-53 -21 -50 -35 -88 -36 -94 0 -3 -8 -21 -19 -41 -10 -20 -15 -39 -12 -43 4
-3 1 -6 -5 -6 -7 0 -11 -3 -10 -8 1 -8 -8 -31 -48 -117 -15 -33 -28 -62 -29
-65 -15 -45 -190 -397 -207 -417 -6 -7 -7 -13 -4 -13 4 0 2 -6 -4 -12 -6 -7
-30 -47 -53 -88 -49 -88 -136 -205 -199 -270 -39 -39 -49 -45 -83 -43 -34 2
-82 30 -70 41 2 3 0 12 -4 21 -5 9 -12 47 -15 85 -4 38 -9 73 -12 78 -3 5 0
15 6 23 7 8 8 15 4 15 -5 0 -11 55 -12 122 -5 202 -11 433 -12 433 -1 0 -3 25
-5 55 -6 87 -23 268 -31 315 -2 17 -5 37 -5 45 -2 34 -41 215 -49 225 -4 5 -9
15 -9 20 -1 13 -29 45 -38 45 -21 -1 -59 -55 -68 -98 -27 -132 -35 -175 -40
-222 -3 -30 -7 -71 -9 -90 -6 -46 -15 -146 -21 -244 -3 -43 -8 -82 -11 -87 -3
-5 0 -9 6 -9 6 0 8 -4 5 -10 -8 -13 -13 -54 -21 -189 -4 -64 -8 -136 -10 -161
-5 -79 -5 -350 0 -358 2 -4 7 -28 10 -52 16 -129 103 -264 203 -314 60 -30 96
-37 230 -42 112 -4 142 4 223 59 44 29 200 182 200 196 0 4 8 14 18 23 22 21
31 32 72 93 18 28 38 53 44 57 6 4 7 8 2 8 -5 0 -2 8 6 18 21 23 148 249 148
262 0 5 4 10 10 10 5 0 9 3 8 8 -1 4 10 31 25 59 15 29 27 56 26 59 0 4 3 10
8 13 5 3 21 31 35 61 l27 55 1 -105 c2 -256 14 -525 26 -590 3 -19 7 -44 8
-55 11 -90 116 -192 203 -198 18 -1 33 -5 33 -9 0 -4 11 -3 25 2 17 7 25 6 25
-1 0 -8 4 -8 13 -2 6 6 25 13 40 17 74 18 208 141 267 245 8 14 18 28 22 31
18 14 278 556 278 580 0 6 5 10 11 10 5 0 8 4 5 9 -5 8 20 67 34 81 3 3 6 12
8 20 6 27 44 110 51 110 3 0 6 -30 7 -68 0 -37 4 -96 8 -132 5 -36 9 -77 9
-93 1 -15 6 -27 10 -27 5 0 5 -5 2 -10 -3 -6 -3 -16 2 -22 4 -7 8 -17 8 -23 5
-53 92 -289 114 -305 3 -3 15 -18 25 -35 26 -40 59 -75 72 -75 5 0 19 -8 30
-17 19 -18 43 -24 94 -27 14 0 27 -4 30 -8 3 -3 30 2 60 13 30 10 59 20 65 22
14 3 103 91 99 98 -2 3 8 17 22 30 13 12 30 34 38 48 7 15 44 80 82 146 71
123 230 440 239 475 1 3 11 25 22 50 58 128 105 236 107 247 5 28 14 21 31
-24 10 -27 37 -89 61 -140 24 -50 44 -95 44 -101 0 -5 9 -17 20 -27 11 -10 18
-21 15 -25 -2 -4 5 -16 15 -28 11 -12 20 -24 20 -27 0 -6 50 -81 80 -120 31
-40 197 -204 202 -200 3 3 11 -1 18 -10 7 -8 17 -15 22 -15 5 0 18 -9 30 -20
12 -11 28 -20 35 -20 7 0 13 -3 13 -8 0 -6 17 -15 75 -37 11 -5 25 -9 30 -10
6 -1 15 -3 20 -5 6 -1 26 -2 46 -2 79 0 143 61 154 147 3 19 6 38 6 42 5 20
-34 84 -76 126 -25 26 -48 47 -50 47 -9 0 -189 184 -210 213 -11 16 -28 38
-37 49 -10 12 -18 26 -18 31 0 6 -6 18 -14 26 -21 24 -96 169 -96 186 0 8 -5
15 -12 15 -6 0 -8 3 -5 7 4 3 2 11 -3 18 -5 6 -11 21 -13 33 -2 12 -6 25 -10
28 -20 21 -3 29 56 27 66 -2 122 -3 147 -3 8 0 51 -2 95 -4 99 -6 366 -6 420
-1 57 5 107 16 126 26 9 4 19 5 23 2 3 -3 6 -1 6 5 0 7 6 12 13 12 6 0 23 16
36 36 44 64 34 180 -18 222 -24 19 -70 43 -92 48 -10 2 -29 6 -41 9 -23 6 -41
8 -133 20 -45 6 -188 10 -548 16 -124 2 -128 2 -126 23 0 11 0 23 -1 26 -7 19
-4 147 3 158 6 8 5 12 -2 12 -7 0 -10 4 -7 8 3 5 6 38 6 73 2 67 36 209 54
221 6 4 8 8 4 8 -4 0 0 19 8 43 9 23 27 80 40 127 14 47 27 92 31 100 9 21 9
20 17 63 5 20 11 37 15 37 4 0 8 6 9 13 1 19 8 44 47 172 20 66 42 136 48 155
6 19 10 38 9 43 -1 4 3 7 10 7 6 0 9 3 5 6 -3 3 1 23 8 45 8 22 14 43 15 47 0
4 6 27 14 52 33 104 77 250 81 267 2 10 8 29 13 43 5 14 10 28 11 32 11 55 15
68 23 68 5 0 7 4 4 9 -3 4 -1 23 5 42 17 56 90 313 94 333 3 10 12 44 21 75
14 46 41 148 59 221 2 8 4 15 5 15 2 0 10 36 12 58 1 9 5 17 8 17 3 0 6 8 6
18 1 9 5 33 9 52 4 19 8 40 9 45 1 6 4 15 7 20 7 12 4 132 -4 163 -12 47 -78
123 -103 121 -4 0 -10 4 -13 9 -12 19 -98 30 -141 19 -22 -6 -40 -15 -40 -20
0 -4 -4 -6 -9 -2 -13 7 -91 -70 -91 -90 0 -8 -4 -15 -10 -15 -5 0 -10 -7 -10
-15 0 -8 -36 -104 -81 -212 -44 -109 -82 -202 -83 -208 -2 -5 -8 -22 -14 -37
-7 -16 -17 -40 -24 -55 -6 -16 -12 -32 -13 -38 -2 -5 -4 -17 -6 -25 -2 -8 -6
-17 -9 -20 -6 -5 -59 -154 -65 -180 -2 -8 -4 -17 -5 -20 -1 -3 -2 -8 -1 -12 0
-5 -4 -8 -9 -8 -6 0 -10 -6 -10 -12 0 -7 -27 -96 -61 -197 -96 -295 -197 -661
-215 -776 -3 -22 -9 -58 -14 -80 -5 -22 -12 -62 -15 -90 -4 -27 -8 -61 -11
-75 -2 -14 -6 -54 -10 -90 -3 -36 -7 -83 -10 -105 -2 -22 -6 -76 -9 -120 -3
-44 -7 -87 -8 -95 -6 -31 -78 -240 -102 -295 -7 -16 -18 -48 -25 -70 -7 -22
-16 -45 -21 -51 -5 -6 -6 -14 -2 -17 3 -4 1 -7 -5 -7 -7 0 -11 -5 -10 -12 2
-10 -55 -13 -245 -13 l-248 -1 6 51 c3 27 7 73 10 100 3 28 8 66 11 85 4 19 8
44 9 55 8 61 16 94 28 125 28 69 30 75 33 85 6 22 66 180 72 189 3 6 8 16 9
21 7 31 11 43 21 68 7 16 12 35 12 43 0 8 5 14 10 14 6 0 9 3 9 8 -1 4 0 9 1
12 1 3 3 12 5 20 3 14 29 88 136 383 21 60 39 115 39 123 0 8 5 14 12 14 6 0
9 3 6 6 -4 3 5 36 19 72 13 37 29 83 35 102 5 19 13 40 17 45 4 6 16 37 26 70
9 33 23 74 30 90 30 72 75 203 75 217 0 8 3 18 7 22 4 3 8 13 9 20 1 7 9 29
17 47 9 19 24 61 34 94 9 33 22 63 28 67 5 4 7 8 3 8 -5 0 76 258 98 310 4 8
8 22 9 30 6 28 13 55 24 83 6 15 13 38 15 50 10 46 15 63 25 90 6 15 8 27 5
27 -4 0 -2 6 3 13 5 6 9 42 8 78 -2 86 -37 147 -106 188 -36 22 -109 31 -151
20z m-1643 -3499 c3 6 15 6 30 0 15 -6 27 -6 30 0 3 6 15 6 30 0 14 -5 27 -5
30 0 3 5 18 5 35 0 18 -5 30 -5 30 0 0 6 10 6 25 0 16 -6 25 -6 25 0 0 6 9 6
25 0 14 -5 25 -7 25 -4 0 3 4 3 9 -1 5 -3 -7 -45 -28 -93 -53 -123 -54 -126
-53 -134 1 -5 -3 -8 -8 -8 -5 0 -9 -3 -8 -7 1 -9 -13 -45 -41 -108 -52 -113
-69 -155 -63 -155 4 0 2 -4 -4 -8 -6 -4 -25 -43 -43 -87 -18 -44 -37 -85 -42
-91 -5 -6 -6 -14 -2 -17 3 -4 1 -7 -5 -7 -7 0 -12 -4 -12 -9 0 -5 -7 -26 -16
-47 -9 -22 -15 -41 -14 -43 1 -2 -2 -7 -7 -10 -4 -3 -20 -31 -35 -61 l-28 -55
5 435 c5 546 4 513 27 507 10 -3 20 -1 23 4 3 4 16 4 30 -1 15 -6 27 -6 30 0z
m1279 -19 c42 -1 47 -3 41 -18 -4 -10 -15 -38 -24 -63 -9 -25 -18 -47 -22 -50
-3 -3 -15 -30 -28 -60 -13 -30 -38 -86 -57 -125 -18 -38 -34 -77 -36 -85 -2
-8 -5 -17 -8 -20 -3 -3 -41 -77 -85 -164 -44 -87 -84 -158 -89 -158 -10 2 -12
8 -23 82 -8 51 -7 446 0 560 3 41 6 82 6 91 1 16 -9 16 325 10z"/>
</g>
</svg>
